<mxfile host="app.diagrams.net" modified="2024-03-11T06:09:32.799Z" agent="Mozilla/5.0 (Macintosh; Intel Mac OS X 10_15_7) AppleWebKit/537.36 (KHTML, like Gecko) Chrome/122.0.0.0 Safari/537.36" version="23.1.6" etag="S74A2wVB7hjgSDPf-RpI" type="github">
  <diagram name="페이지-1" id="lGosDp3T9TM7N0VhiUiF">
    <mxGraphModel>
      <root>
        <mxCell id="0" />
        <mxCell id="1" parent="0" />
      </root>
    </mxGraphModel>
  </diagram>
</mxfile>
